<?xml version="1.0" standalone="no"?>
<!DOCTYPE svg PUBLIC "-//W3C//DTD SVG 20010904//EN"
 "http://www.w3.org/TR/2001/REC-SVG-20010904/DTD/svg10.dtd">
<svg version="1.0" xmlns="http://www.w3.org/2000/svg"
 width="512.000000pt" height="512.000000pt" viewBox="0 0 512.000000 512.000000"
 preserveAspectRatio="xMidYMid meet">
<metadata>
Created by potrace 1.14, written by Peter Selinger 2001-2017
</metadata>
<g transform="translate(0.000000,512.000000) scale(0.100000,-0.100000)"
fill="#000000" stroke="none">
<path d="M1655 3370 c-287 -45 -509 -215 -605 -462 -48 -123 -63 -231 -57
-403 6 -180 27 -269 93 -403 83 -170 237 -292 431 -343 183 -48 512 -32 751
36 l52 16 0 389 0 390 -270 0 -270 0 0 -85 0 -85 180 0 180 0 0 -243 0 -244
-53 -12 c-29 -6 -104 -16 -167 -21 -402 -36 -645 118 -715 452 -20 94 -20 308
1 401 51 229 214 396 432 442 146 31 337 15 508 -45 l82 -28 35 82 36 81 -62
23 c-111 42 -223 62 -377 67 -80 2 -172 0 -205 -5z"/>
<path d="M2710 2555 l0 -805 95 0 95 0 0 380 0 380 420 0 420 0 0 -380 0 -380
95 0 95 0 0 805 0 805 -95 0 -95 0 0 -340 0 -340 -420 0 -420 0 0 340 0 340
-95 0 -95 0 0 -805z"/>
</g>
</svg>
